<svg id="Layer_1" enable-background="new 0 0 512 512" height="512" viewBox="0 0 512 512" width="512" xmlns="http://www.w3.org/2000/svg"><g><path d="m484 166v194.73c0 19.48-15.79 35.27-35.27 35.27h-385.46c-19.48 0-35.27-15.79-35.27-35.27v-194.73z" fill="#e19974"/><path d="m484 166v194.73c0 19.48-15.79 35.27-35.27 35.27h-385.46c-19.48 0-35.27-15.79-35.27-35.27v-194.73z" fill="#e19974"/><path d="m454 166v194.73c0 19.48-15.79 35.27-35.27 35.27h30c19.48 0 35.27-15.79 35.27-35.27v-194.73z" fill="#dc8758"/><path d="m380 166h40v230h-40z" fill="#d77f4a"/><path d="m188 166h40v230h-40z" fill="#d77f4a"/><path d="m28 206h456v40h-456z" fill="#dc8758"/><path d="m454 206h30v40h-30z" fill="#d77f4a"/><path d="m28 299h456v40h-456z" fill="#dc8758"/><path d="m454 299h30v40h-30z" fill="#d77f4a"/><path d="m498.5 166h-485c-3.314 0-6-2.686-6-6v-38c0-3.314 2.686-6 6-6h485c3.314 0 6 2.686 6 6v38c0 3.314-2.686 6-6 6z" fill="#dc8758"/><g fill="#d77f4a"><path d="m498.5 116h-30c3.314 0 6 2.686 6 6v38c0 3.314-2.686 6-6 6h30c3.314 0 6-2.686 6-6v-38c0-3.314-2.686-6-6-6z"/><path d="m92 166h40v230h-40z"/><path d="m284 166h40v230h-40z"/></g><path d="m498.5 108.5h-402.5c-4.142 0-7.5 3.358-7.5 7.5s3.358 7.5 7.5 7.5h401v35h-482v-35h45.923c4.142 0 7.5-3.358 7.5-7.5s-3.358-7.5-7.5-7.5h-47.423c-7.444 0-13.5 6.056-13.5 13.5v38c0 7.444 6.056 13.5 13.5 13.5h7v187.23c0 23.583 19.187 42.77 42.77 42.77h175.884c4.142 0 7.5-3.358 7.5-7.5s-3.358-7.5-7.5-7.5h-3.654v-42h41v42h-2.115c-4.143 0-7.5 3.358-7.5 7.5s3.357 7.5 7.5 7.5h174.345c23.583 0 42.77-19.187 42.77-42.77v-69.858c0-4.142-3.357-7.5-7.5-7.5s-7.5 3.358-7.5 7.5v.628h-49v-38h49v1.782c0 4.142 3.357 7.5 7.5 7.5s7.5-3.358 7.5-7.5v-81.782h7c7.444 0 13.5-6.056 13.5-13.5v-38c0-7.444-6.056-13.5-13.5-13.5zm-86 65v25h-25v-25zm-81 118v-38h41v38zm0 55h41v42h-41zm0-173h41v25h-41zm-55 40v25h-137v-25zm-137-15v-25h41v25zm0 148h41v42h-41zm0-93h41v38h-41zm56 0h25v38h-25zm40 0h41v38h-41zm41-55h-41v-25h41zm-56-25v25h-25v-25zm-136 65h-49v-25h49zm-49 15h49v38h-49zm0 53h49v25h-49zm49-133v25h-49v-25zm-49 187.23v-14.23h49v42h-21.23c-15.312 0-27.77-12.458-27.77-27.77zm64 27.77v-215h25v215zm121 0h-25v-42h25zm-81-57v-25h137v25zm152 57v-215h25v215zm96 0v-42h25v42zm61.23 0h-21.23v-42h49v14.23c0 15.312-12.457 27.77-27.77 27.77zm27.77-57h-145v-25h145zm-64-40h-25v-38h25zm-81-53v-25h145v25zm145-40h-49v-25h49z"/></g></svg>