<?xml version="1.0" encoding="iso-8859-1"?>
<!-- Generator: Adobe Illustrator 19.0.0, SVG Export Plug-In . SVG Version: 6.00 Build 0)  -->
<svg version="1.1" id="Capa_1" xmlns="http://www.w3.org/2000/svg" xmlns:xlink="http://www.w3.org/1999/xlink" x="0px" y="0px"
	 viewBox="0 0 512 512" style="enable-background:new 0 0 512 512;" xml:space="preserve">
<path style="fill:#7B5C45;" d="M293.264,261.184L202.096,256l-41.12,67.152c17.872,31.584,53.632,35.152,53.632,35.152
	C225.344,448.288,199.712,512,199.712,512h91.76c-24.432-85.248-7.152-128-7.152-128l30.384-30.448l22.64-19.664l5.952-29.792
	L293.264,261.184z M186.08,323.744c9.68-4,16.368-19.04,16.368-19.04c1.328,1.664,13.024,32.064,13.024,32.064
	C200.432,334.096,186.08,323.744,186.08,323.744z M241.184,343.44c-9.68,2.336-28.384-37.408-28.384-42.08
	c0,0,14.368,11.36,42.08,7.344C254.88,308.704,250.88,341.104,241.184,343.44z M271.92,359.152
	c-4.672,1.472-7.376-3.424-8.928-9.824c-2.928-12.032-1.024-24.736,4.512-35.792l4.416-8.832l10.352-3.344
	c0,0,4.016,24.048,19.376,39.088C301.648,340.432,283.6,355.472,271.92,359.152z"/>
<path style="fill:#8BC540;" d="M486.784,234.656c0-18.256-6.224-35.008-16.576-48.416c3.184-8.592,5.008-17.824,5.008-27.52
	c0-40.672-30.608-74.128-70.016-78.768c-11.6-29.44-40.24-50.288-73.792-50.288c-14.16,0-27.408,3.744-38.912,10.24
	C278.784,16.08,253.136,0,223.68,0c-39.44,0-72.064,28.8-78.224,66.48c-2.032-0.16-4.08-0.304-6.144-0.304
	c-43.824,0-79.36,35.536-79.36,79.36c0,0.496,0.064,0.992,0.08,1.488c-21.008,14.272-34.816,38.352-34.816,65.664
	c0,24.384,11.024,46.192,28.336,60.752c-0.016,0.464-0.064,0.928-0.064,1.408c0,43.824,35.536,79.36,79.36,79.36
	c34.08,0,63.072-21.536,74.304-51.712c12.304,5.2,25.824,8.08,40.032,8.08c11.952,0,23.376-2.144,34.048-5.888
	c3.04,41.056,37.232,73.456,79.056,73.456c40.928,0,74.592-30.976,78.88-70.768C467.184,295.12,486.784,267.184,486.784,234.656z"/>
<g>
	<path style="fill:#7FB241;" d="M79.12,171.28c-9.824,0-17.792,7.968-17.792,17.792s7.968,17.792,17.792,17.792
		c9.824,0,17.792-7.968,17.792-17.792S88.944,171.28,79.12,171.28z M79.12,194.928c-6.08,0-11.008-4.928-11.008-11.008
		s4.928-11.008,11.008-11.008s11.008,4.928,11.008,11.008S85.2,194.928,79.12,194.928z"/>
	<path style="fill:#7FB241;" d="M172,215.728c-9.824,0-17.792,7.968-17.792,17.792s7.968,17.792,17.792,17.792
		c9.824,0,17.792-7.968,17.792-17.792S181.824,215.728,172,215.728z M172,239.376c-6.08,0-11.008-4.928-11.008-11.008
		S165.92,217.36,172,217.36s11.008,4.928,11.008,11.008C183.008,234.448,178.08,239.376,172,239.376z"/>
	<path style="fill:#7FB241;" d="M146.864,97.12c-9.824,0-17.792,7.968-17.792,17.792s7.968,17.792,17.792,17.792
		c9.824,0,17.792-7.968,17.792-17.792S156.688,97.12,146.864,97.12z M146.864,120.768c-6.08,0-11.008-4.928-11.008-11.008
		s4.928-11.008,11.008-11.008s11.008,4.928,11.008,11.008S152.944,120.768,146.864,120.768z"/>
	<path style="fill:#7FB241;" d="M226.48,149.856c-9.824,0-17.792,7.968-17.792,17.792s7.968,17.792,17.792,17.792
		s17.792-7.968,17.792-17.792S236.304,149.856,226.48,149.856z M226.48,173.504c-6.08,0-11.008-4.928-11.008-11.008
		s4.928-11.008,11.008-11.008s11.008,4.928,11.008,11.008C237.488,168.576,232.56,173.504,226.48,173.504z"/>
	<path style="fill:#7FB241;" d="M326.816,250.192c-9.824,0-17.792,7.968-17.792,17.792s7.968,17.792,17.792,17.792
		s17.792-7.968,17.792-17.792S336.64,250.192,326.816,250.192z M326.816,273.84c-6.08,0-11.008-4.928-11.008-11.008
		s4.928-11.008,11.008-11.008s11.008,4.928,11.008,11.008S332.896,273.84,326.816,273.84z"/>
	<path style="fill:#7FB241;" d="M406.848,278.416c-9.824,0-17.792,7.968-17.792,17.792S397.024,314,406.848,314
		s17.792-7.968,17.792-17.792S416.672,278.416,406.848,278.416z M406.848,302.08c-6.08,0-11.008-4.928-11.008-11.008
		s4.928-11.008,11.008-11.008s11.008,4.928,11.008,11.008C417.856,297.152,412.928,302.08,406.848,302.08z"/>
	<path style="fill:#7FB241;" d="M395.84,114.896c-9.824,0-17.792,7.968-17.792,17.792s7.968,17.792,17.792,17.792
		s17.792-7.968,17.792-17.792S405.664,114.896,395.84,114.896z M395.84,138.56c-6.08,0-11.008-4.928-11.008-11.008
		s4.928-11.008,11.008-11.008s11.008,4.928,11.008,11.008C406.848,133.632,401.92,138.56,395.84,138.56z"/>
	<path style="fill:#7FB241;" d="M215.472,41.92c-9.824,0-17.792,7.968-17.792,17.792s7.968,17.792,17.792,17.792
		c9.824,0,17.792-7.968,17.792-17.792S225.296,41.92,215.472,41.92z M215.472,65.568c-6.08,0-11.008-4.928-11.008-11.008
		s4.928-11.008,11.008-11.008S226.48,48.48,226.48,54.56S221.552,65.568,215.472,65.568z"/>
	<path style="fill:#7FB241;" d="M325.712,176.688c-9.824,0-17.792,7.968-17.792,17.792s7.968,17.792,17.792,17.792
		s17.792-7.968,17.792-17.792S335.536,176.688,325.712,176.688z M325.712,200.336c-6.08,0-11.008-4.928-11.008-11.008
		s4.928-11.008,11.008-11.008s11.008,4.928,11.008,11.008S331.792,200.336,325.712,200.336z"/>
	<path style="fill:#7FB241;" d="M438.608,176.688c-9.824,0-17.792,7.968-17.792,17.792s7.968,17.792,17.792,17.792
		s17.792-7.968,17.792-17.792S448.432,176.688,438.608,176.688z M438.608,200.336c-6.08,0-11.008-4.928-11.008-11.008
		s4.928-11.008,11.008-11.008s11.008,4.928,11.008,11.008C449.632,195.408,444.688,200.336,438.608,200.336z"/>
	<path style="fill:#7FB241;" d="M311.584,58.08c-9.824,0-17.792,7.968-17.792,17.792s7.968,17.792,17.792,17.792
		s17.792-7.968,17.792-17.792S321.408,58.08,311.584,58.08z M311.584,81.728c-6.08,0-11.008-4.928-11.008-11.008
		s4.928-11.008,11.008-11.008s11.008,4.928,11.008,11.008S317.664,81.728,311.584,81.728z"/>
	<path style="fill:#7FB241;" d="M107.904,283.568c-9.824,0-17.792,7.968-17.792,17.792s7.968,17.792,17.792,17.792
		c9.824,0,17.792-7.968,17.792-17.792S117.728,283.568,107.904,283.568z M107.904,307.216c-6.08,0-11.008-4.928-11.008-11.008
		s4.928-11.008,11.008-11.008s11.008,4.928,11.008,11.008C118.928,302.288,113.984,307.216,107.904,307.216z"/>
</g>
<g>
</g>
<g>
</g>
<g>
</g>
<g>
</g>
<g>
</g>
<g>
</g>
<g>
</g>
<g>
</g>
<g>
</g>
<g>
</g>
<g>
</g>
<g>
</g>
<g>
</g>
<g>
</g>
<g>
</g>
</svg>
